<svg width="51" height="51" viewBox="0 0 51 51" fill="none" xmlns="http://www.w3.org/2000/svg">
<path d="M43.9066 33.0334H13.6916L9.67712 7.07019H49.6111L43.9066 33.0334Z" stroke="#E8B500" stroke-width="2" stroke-miterlimit="10" stroke-linecap="round" stroke-linejoin="round"/>
<path d="M13.6916 33.0334L6.71916 41.472" stroke="#E8B500" stroke-width="2" stroke-miterlimit="10" stroke-linecap="round" stroke-linejoin="round"/>
<path d="M6.71916 41.4719H49.8226" stroke="#E8B500" stroke-width="2" stroke-miterlimit="10" stroke-linecap="round" stroke-linejoin="round"/>
<path d="M9.6771 7.0702L6.13783 1" stroke="#E8B500" stroke-width="2" stroke-miterlimit="10" stroke-linecap="round" stroke-linejoin="round"/>
<path d="M6.13777 1H1.33105" stroke="#E8B500" stroke-width="2" stroke-miterlimit="10" stroke-linecap="round" stroke-linejoin="round"/>
<path d="M14.0485 49.9999C16.1712 49.9999 17.892 48.0909 17.892 45.7359C17.892 43.381 16.1712 41.4719 14.0485 41.4719C11.9258 41.4719 10.2049 43.381 10.2049 45.7359C10.2049 48.0909 11.9258 49.9999 14.0485 49.9999Z" stroke="#E8B500" stroke-width="2" stroke-miterlimit="10" stroke-linecap="round" stroke-linejoin="round"/>
<path d="M41.9396 49.9999C44.0623 49.9999 45.7831 48.0909 45.7831 45.7359C45.7831 43.381 44.0623 41.4719 41.9396 41.4719C39.8168 41.4719 38.096 43.381 38.096 45.7359C38.096 48.0909 39.8168 49.9999 41.9396 49.9999Z" stroke="#E8B500" stroke-width="2" stroke-miterlimit="10" stroke-linecap="round" stroke-linejoin="round"/>
<path d="M11.0154 15.7246H47.7095" stroke="#E8B500" stroke-width="2" stroke-miterlimit="10" stroke-linecap="round" stroke-linejoin="round"/>
<path d="M12.3532 24.379H45.808" stroke="#E8B500" stroke-width="2" stroke-miterlimit="10" stroke-linecap="round" stroke-linejoin="round"/>
<path d="M39.6277 7.07019L36.3528 33.0334" stroke="#E8B500" stroke-width="2" stroke-miterlimit="10" stroke-linecap="round" stroke-linejoin="round"/>
<path d="M29.6441 7.07019L28.7991 33.0334" stroke="#E8B500" stroke-width="2" stroke-miterlimit="10" stroke-linecap="round" stroke-linejoin="round"/>
<path d="M19.6606 7.07019L21.2451 33.0334" stroke="#E8B500" stroke-width="2" stroke-miterlimit="10" stroke-linecap="round" stroke-linejoin="round"/>
</svg>
